<svg xmlns="http://www.w3.org/2000/svg" aria-hidden="true" viewBox="0 0 410 404">
  <path
    fill="#41D1FF"
    d="M399.641 59.524L215.643 388.545c-3.696 6.61-13.204 6.647-16.95.067L10.307 59.596c-4.06-7.09 2.022-15.733 10.045-14.279l184.2 33.35a9.065 9.065 0 0 0 3.245-.002l181.764-33.274c7.992-1.462 14.089 7.1 10.08 14.133Z"
  />
  <path
    fill="#BD34FE"
    d="M292.965.747 156.412 27.01a4.534 4.534 0 0 0-3.704 3.783L144.3 101.22a4.535 4.535 0 0 0 5.438 4.96l37.995-8.145a4.535 4.535 0 0 1 5.344 5.266l-11.277 55.18a4.535 4.535 0 0 0 5.497 5.344l23.472-5.178a4.535 4.535 0 0 1 5.56 5.083l-17.926 87.066c-1.121 5.446 6.128 8.416 9.155 3.755l2.023-3.116 111.248-221.98c1.863-3.717-1.347-8.008-5.438-7.244l-39.127 7.496a4.535 4.535 0 0 1-5.22-5.895l25.533-70.254c1.476-4.065-2.306-8.104-6.57-7.283Z"
  />
</svg>
